<svg xmlns="http://www.w3.org/2000/svg" width="250" height="50" fill="none"><g clip-path="url(#a)"><mask id="b" width="50" height="50" x="0" y="0" maskUnits="userSpaceOnUse" style="mask-type:luminance"><path fill="#fff" d="M30.04 40.58c3.22-.04 6.27-.51 8.97-1.42a23.8 23.8 0 0 0 1.95-.76 11 11 0 0 1-3.3 4.52 22.2 22.2 0 0 1-9.83 4.07c.91-1.57 1.65-3.8 2.2-6.4M14.9 45.04l-.21-.15c-1.27-.62-1.78-3.43-1.12-7.75a40.3 40.3 0 0 0 14.14 3.4c-1 4.37-2.3 6.68-3.16 6.68-.05 0-.1 0-.15.02-3.4-.02-6.6-.8-9.49-2.18M3.14 31.09c-.2-.75-.32-1.5-.37-2.27a19.54 19.54 0 0 0 2.8 3.17 27.97 27.97 0 0 0 5.86 4.1c-.46 2.52-.58 4.8-.3 6.64a22.34 22.34 0 0 1-7.98-11.64m28.33-6.13c0-.9-.02-1.78-.05-2.67a17.6 17.6 0 0 0 7.62-2.16 26.87 26.87 0 0 1 3.05 12.01c0 1.14-.1 2.22-.27 3.24A17.1 17.1 0 0 1 38.3 37a26.97 26.97 0 0 1-7.82 1.29c.67-4.06 1-8.76 1-13.33m-9.59 12.5c-2.82-.6-5.5-1.5-7.9-2.64a58.3 58.3 0 0 1 4.6-12.7l1.05-2.05c1.64.74 3.42 1.32 5.3 1.72 1.41.3 2.83.47 4.23.52.02.86.04 1.74.04 2.65 0 5.37-.43 9.82-1.05 13.3a36.82 36.82 0 0 1-6.25-.8m-14.8-7.15a14.44 14.44 0 0 1-3.94-5.57 17.67 17.67 0 0 1 3.1-6.25 24.72 24.72 0 0 1 5.33-5.14c.6 1.07 1.44 2.13 2.5 3.13a18.8 18.8 0 0 0 3.52 2.57 63.98 63.98 0 0 0-5.7 14.72 25.44 25.44 0 0 1-4.8-3.45m22.8-21.2a30.79 30.79 0 0 1 8.02 9A15.6 15.6 0 0 1 31.33 20c-.2-3.93-.67-7.72-1.42-10.87M25.4 19.57a24.26 24.26 0 0 1-4.66-1.5 48.64 48.64 0 0 1 6.75-9.35 60.61 60.61 0 0 1 1.57 11.31c-1.2-.05-2.44-.2-3.65-.46m-9.75-4.75c-.94-.88-1.66-1.8-2.14-2.73A31.33 31.33 0 0 1 25.06 8a53.46 53.46 0 0 0-6.36 9.06 17.08 17.08 0 0 1-3.04-2.22m-4.9-7.28-.1.35a7.14 7.14 0 0 0 .07 3.27 27.1 27.1 0 0 0-6.28 5.94c-.52.69-.98 1.39-1.4 2.1a22.34 22.34 0 0 1 7.71-11.66m2.14.83a5.48 5.48 0 0 1 2.06-3.12c2.66-.8 5.75-.6 9.01.6a33.4 33.4 0 0 0-11.15 4c-.05-.5-.03-1 .08-1.48Zm18.5-3c.78-.51 1.5-.86 2.1-1 1.14.46 2.27 1.05 3.35 1.78-1.73-.43-3.56-.7-5.46-.78Zm-3.85-2.45c.92.1 1.92.26 2.93.5-.63.34-1.3.77-1.97 1.28-.3-.67-.62-1.26-.96-1.78Zm-2.47.9c-1.04-.39-2.05-.7-3.05-.92.8-.09 1.62-.14 2.45-.14.38 0 .86.47 1.36 1.37l-.75-.3M0 25c0 2.33.33 4.59.94 6.72.04.14.07.29.12.43l.03.09A24.56 24.56 0 0 0 24.5 49.52a24.41 24.41 0 0 0 14.53-4.78 24.52 24.52 0 0 0 8.05-29.26 1.15 1.15 0 0 0-1.49-.61c-.58.25-.85.9-.6 1.49a22.1 22.1 0 0 1 1.09 14 7.92 7.92 0 0 1-1.75 2.97c.02-.38.03-.77.03-1.18 0-4.38-1.2-9-3.45-13.33a8.8 8.8 0 0 0 3.06-5.11 1.13 1.13 0 0 0-.91-1.33 1.13 1.13 0 0 0-1.33.91 6.43 6.43 0 0 1-1.95 3.48 33.15 33.15 0 0 0-8-9.1c3.43.23 6.6 1.06 9.17 2.49a1.14 1.14 0 0 0 1.45-1.7C38.73 3.33 32.38.49 24.5.49 10.99.5 0 11.5 0 25Z"/></mask><g mask="url(#b)"><path fill="#fff" d="M49.02.5H0V49.5h49.02V.49Z"/></g><path fill="#fff" d="M244.38 17.84c3.62 0 5.62 1.75 5.62 4.93 0 3-1.97 4.8-5.26 4.8h-2.3v4.6h-3.06V17.84h5Zm-1.95 7.23h1.83c1.77 0 2.67-.77 2.67-2.3 0-1.54-.99-2.4-2.77-2.4h-1.73v4.7Zm-8.67 1.36c0 2.1-.8 3.12-2.46 3.12s-2.53-1.05-2.53-3.12v-8.6h-3.05v8.4c0 2.04.5 3.6 1.52 4.62.94.95 2.3 1.43 4.06 1.43 2.51 0 5.51-1.06 5.51-6.07v-8.4h-3.05v8.62ZM217.4 17.7c3.1 0 6.4 1.92 6.4 7.31 0 5.4-3.3 7.27-6.4 7.27-3.1 0-6.43-1.9-6.43-7.27 0-5.36 3.32-7.3 6.43-7.3Zm0 11.9c1.2 0 3.25-.6 3.25-4.59 0-4-2.04-4.6-3.25-4.6-2.12 0-3.27 1.64-3.27 4.6s1.16 4.6 3.27 4.6Zm-9.58-1.78c.51 1.02.94 1.91 1.95 1.91h.72v2.36l-.1.03s-.55.15-1.48.15c-2.41 0-3.15-1.66-3.8-3.13-.54-1.2-1-2.24-2.26-2.24h-1.34v5.26h-3.05V17.84h5.08c3.71 0 5.44 1.45 5.44 4.55 0 1.93-1.16 3.1-2.3 3.62.5.5.83 1.16 1.15 1.82m-6.33-3.3h1.7c1.7 0 2.76-.78 2.76-2.07 0-1.33-.92-2.1-2.53-2.1h-1.92v4.17h-.01Zm-11.18 2.4h3.15v.15c0 .93-.33 2.48-2.53 2.48-2.07 0-3.31-1.7-3.31-4.55 0-2.86 1.18-4.6 3.25-4.6 2.45 0 2.55 2.49 2.55 2.6v.16l2.85-.45v-.12c0-1.04-.92-4.9-5.43-4.9-4.05 0-6.37 2.66-6.37 7.31 0 4.65 2.4 7.27 6.41 7.27 4.02 0 5.47-2.82 5.47-5.22v-2.5h-6.03v2.37Zm-9.14-9.1h-3.63l-4.74 6.46v-6.45h-3.1v14.33h3.1v-6.59l4.86 6.6h3.68l-5.55-7.23 5.38-7.1v-.01Zm-17.26 8.86-5.01-8.85h-3.1v14.33h3.06v-8.55l4.98 8.55h3.12V17.84h-3.05v8.85Zm-14.15-8.76 5.22 14.24h-3.17l-1.22-3.5h-4.78l-1.17 3.5h-3.2l5.26-14.33h3.03l.03.1Zm-1.55 3.81-1.56 4.52h3.14l-1.58-4.52Zm-9.6 2.87a3.46 3.46 0 0 1 2.54 3.47c0 2.6-1.84 4.08-5.04 4.08h-6.05V17.83h5.47c3.1 0 4.68 1.3 4.68 3.85 0 1.97-.9 2.68-1.6 2.92m-3.41-.9c1.27 0 1.86-.54 1.86-1.7 0-1.14-.76-1.64-2.25-1.64h-1.7v3.33h2.09Zm-2.09 5.94h2.4c1.56 0 2.28-.6 2.28-1.85 0-1.54-1.27-1.86-2.35-1.86h-2.32v3.7Zm-15.62-11.8c4.46 0 7.12 2.76 7.12 7.4 0 4.66-2.38 6.93-6.52 6.93h-4.86V17.84h4.26Zm-1.2 11.8h1.78c2.19 0 3.5-1.66 3.5-4.43 0-3.21-1.38-4.84-4.13-4.84h-1.15v9.27Zm-10.69-11.8h-3.05v14.33h9.25v-2.53h-6.2v-11.8Zm-7.16 9.99c.5 1.02.94 1.91 1.95 1.91h.72v2.36l-.1.03s-.55.15-1.48.15c-2.41 0-3.15-1.66-3.8-3.13-.54-1.2-1-2.24-2.26-2.24h-1.34v5.26h-3.06V17.84h5.09c3.7 0 5.44 1.45 5.44 4.55 0 1.93-1.16 3.1-2.3 3.62.5.5.83 1.16 1.15 1.82m-6.32-3.3h1.7c1.7 0 2.75-.78 2.75-2.07 0-1.33-.92-2.1-2.53-2.1h-1.92v4.17Zm-11.2-6.82c3.1 0 6.4 1.92 6.4 7.31 0 5.4-3.3 7.27-6.4 7.27-3.1 0-6.42-1.9-6.42-7.27 0-5.36 3.32-7.3 6.42-7.3Zm0 11.9c1.21 0 3.25-.6 3.25-4.59 0-4-2.04-4.6-3.25-4.6-2.11 0-3.27 1.64-3.27 4.6s1.16 4.6 3.27 4.6ZM70.63 17.85h3.45l-4.12 14.33H66.5l-2.5-8.98-2.54 8.98h-3.45L53.9 17.84h3.55l2.42 10.45 2.88-10.45h2.57l2.8 10.45 2.5-10.45h.01Z"/></g><defs><clipPath id="a"><path fill="#fff" d="M0 .5h250V49.5H0z"/></clipPath></defs></svg>